<mxfile host="Electron" agent="Mozilla/5.0 (X11; Linux x86_64) AppleWebKit/537.36 (KHTML, like Gecko) draw.io/24.7.5 Chrome/126.0.6478.183 Electron/31.3.0 Safari/537.36" version="24.7.5">
  <diagram name="Page-1" id="33CWJwfJ7k4EoufuokQ5">
    <mxGraphModel dx="1364" dy="843" grid="1" gridSize="10" guides="1" tooltips="1" connect="1" arrows="1" fold="1" page="1" pageScale="1" pageWidth="850" pageHeight="1100" math="0" shadow="0">
      <root>
        <mxCell id="0" />
        <mxCell id="1" parent="0" />
        <mxCell id="y7OS2LEBzDrXz5ZYoctb-3" style="edgeStyle=orthogonalEdgeStyle;rounded=0;orthogonalLoop=1;jettySize=auto;html=1;exitX=1;exitY=0.5;exitDx=0;exitDy=0;entryX=0;entryY=0.5;entryDx=0;entryDy=0;" edge="1" parent="1" source="y7OS2LEBzDrXz5ZYoctb-1" target="y7OS2LEBzDrXz5ZYoctb-2">
          <mxGeometry relative="1" as="geometry" />
        </mxCell>
        <mxCell id="y7OS2LEBzDrXz5ZYoctb-7" value="Embeddings" style="edgeLabel;html=1;align=center;verticalAlign=middle;resizable=0;points=[];" vertex="1" connectable="0" parent="y7OS2LEBzDrXz5ZYoctb-3">
          <mxGeometry x="-0.1538" relative="1" as="geometry">
            <mxPoint as="offset" />
          </mxGeometry>
        </mxCell>
        <mxCell id="y7OS2LEBzDrXz5ZYoctb-1" value="Encoder" style="rounded=1;whiteSpace=wrap;html=1;" vertex="1" parent="1">
          <mxGeometry x="160" y="190" width="120" height="60" as="geometry" />
        </mxCell>
        <mxCell id="y7OS2LEBzDrXz5ZYoctb-11" style="edgeStyle=orthogonalEdgeStyle;rounded=0;orthogonalLoop=1;jettySize=auto;html=1;exitX=1;exitY=0.5;exitDx=0;exitDy=0;entryX=0;entryY=0.5;entryDx=0;entryDy=0;" edge="1" parent="1" source="y7OS2LEBzDrXz5ZYoctb-2" target="y7OS2LEBzDrXz5ZYoctb-9">
          <mxGeometry relative="1" as="geometry">
            <mxPoint x="570" y="223" as="targetPoint" />
          </mxGeometry>
        </mxCell>
        <mxCell id="y7OS2LEBzDrXz5ZYoctb-2" value="Decoder" style="rounded=1;whiteSpace=wrap;html=1;" vertex="1" parent="1">
          <mxGeometry x="410" y="190" width="120" height="60" as="geometry" />
        </mxCell>
        <mxCell id="y7OS2LEBzDrXz5ZYoctb-5" style="edgeStyle=orthogonalEdgeStyle;rounded=0;orthogonalLoop=1;jettySize=auto;html=1;exitX=0.5;exitY=0;exitDx=0;exitDy=0;entryX=0.5;entryY=1;entryDx=0;entryDy=0;" edge="1" parent="1" source="y7OS2LEBzDrXz5ZYoctb-4" target="y7OS2LEBzDrXz5ZYoctb-1">
          <mxGeometry relative="1" as="geometry" />
        </mxCell>
        <mxCell id="y7OS2LEBzDrXz5ZYoctb-4" value="Input english text" style="rounded=1;whiteSpace=wrap;html=1;" vertex="1" parent="1">
          <mxGeometry x="160" y="280" width="120" height="30" as="geometry" />
        </mxCell>
        <mxCell id="y7OS2LEBzDrXz5ZYoctb-10" style="edgeStyle=orthogonalEdgeStyle;rounded=0;orthogonalLoop=1;jettySize=auto;html=1;exitX=0.5;exitY=0;exitDx=0;exitDy=0;entryX=0.5;entryY=1;entryDx=0;entryDy=0;" edge="1" parent="1" source="y7OS2LEBzDrXz5ZYoctb-6" target="y7OS2LEBzDrXz5ZYoctb-2">
          <mxGeometry relative="1" as="geometry" />
        </mxCell>
        <mxCell id="y7OS2LEBzDrXz5ZYoctb-6" value="Input german text" style="rounded=1;whiteSpace=wrap;html=1;" vertex="1" parent="1">
          <mxGeometry x="400" y="280" width="120" height="30" as="geometry" />
        </mxCell>
        <mxCell id="y7OS2LEBzDrXz5ZYoctb-9" value="Output translation" style="rounded=1;whiteSpace=wrap;html=1;" vertex="1" parent="1">
          <mxGeometry x="620" y="205" width="120" height="30" as="geometry" />
        </mxCell>
      </root>
    </mxGraphModel>
  </diagram>
</mxfile>
